<?xml version="1.0" encoding="utf-8"?>
<!-- Generator: Adobe Illustrator 23.0.0, SVG Export Plug-In . SVG Version: 6.00 Build 0)  -->
<svg version="1.1" id="Capa_1" xmlns="http://www.w3.org/2000/svg" xmlns:xlink="http://www.w3.org/1999/xlink" x="0px" y="0px"
	 viewBox="0 0 161 35.8" style="enable-background:new 0 0 161 35.8;" xml:space="preserve">
<style type="text/css">
	.st0{fill:#B01715;}
	.st1{fill:#4B1A11;}
</style>
<path class="st0" d="M48.5,15.9c3.7-1.5,5.1-3.5,5.1-6c0-4.4-3.8-6.3-10.1-6.3H32.4c0.7,1.1,1.4,2.2,1.4,3.9v8.7
	c-3.3,0.6-6.2,1.2-9,1.9c-2.5-6.9-5.3-14.5-5.3-14.5h-7c0.1,1,0,2-0.5,3.4L4.2,28.6c0,0-0.5,1.5-1.6,2.9h5.7c-0.1-0.8,0-1.7,0.2-2.3
	c0.6-1.7,2.1-2.8,3.8-3.6c2.1-1,5.9-2.1,7.6-2.7l1.9,5.3c0,0,0.8,2,0.3,3.3h8c-1.2-1.6-1.6-2.9-1.6-2.9c-0.2-0.5-1.3-3.4-2.6-7.1
	c2.5-0.6,5-1.1,7.8-1.6v7.7c0,1.5-0.6,2.8-1.4,4H43c1.7,0,3.3-0.1,4.5-0.3c4.6-0.8,7.8-3.1,7.8-8.1C55.3,19.3,52.7,17,48.5,15.9
	 M12.6,21.6c-0.7,0.3-1.5,0.9-2,1.3c1.5-4.5,3.6-10.6,4.6-13.5l3.5,10C17,20,14.3,20.8,12.6,21.6 M39.9,7c1.1-0.1,1.5-0.1,2.2-0.1
	c3.4,0,5,1.4,5,3.5c0,1.9-1.3,3.1-3.4,3.8c-0.9,0.3-2.4,0.6-3.8,0.8V7z M42.5,28h-2.6v-9.3c1-0.2,2.5-0.5,3.5-0.6
	c3.1,0.7,5.4,2,5.4,5.2C48.8,26.9,46.1,28,42.5,28"/>
<path class="st1" d="M58.1,31.5c1.4-2.1,1.4-3.9,1.4-3.9v-20c0,0,0-1.9-1.4-4h9c-1.4,2.1-1.4,3.9-1.4,4v20c0,0,0,1.9,1.4,3.9H58.1z"
	/>
<path class="st1" d="M158.6,11.8h-6c0.5,0.8,0.3,2.2-0.2,3.5l-3.9,10.4l-4-10.4c-0.5-1.3-0.7-2.7-0.2-3.5h-7.8
	c1.1,1.1,1.7,2.6,2.1,3.5l6.7,16.2h5.2c0,0,0.1-1.3,0.7-2.8c0,0,0,0,0,0l5.4-13.4C156.9,14.4,157.7,12.8,158.6,11.8"/>
<path class="st1" d="M137.2,22.2c0.4-4.1-0.8-11.3-9.8-11.3c-7.4,0-10.1,5.2-10.1,10.2c0,6.4,3.5,10.8,11.8,10.8c3.4,0,6.1-1,7.8-2
	l-1.7-3.7c-1.6,0.8-3.5,1.5-5.7,1.5c-3.7,0-6-1.3-6.5-5h8.1C134.1,22.8,136.5,22.6,137.2,22.2 M123,19.4c0.4-3.2,1.8-4.8,4.4-4.8
	c2.7,0,4,2.1,4.1,4.7c0,0-1.2,0-2.7,0H123z"/>
<path class="st1" d="M82.5,31.5h8c-1.2-1.8-1.2-3.5-1.2-3.5V17.4c0-3.8-2-6.1-6.3-6.1c-2.7,0-5,1.2-6.6,2.7v-2.3h-6.8
	c1.2,1.8,1.2,3.5,1.2,3.5V28c0,0,0,1.7-1.2,3.5h8c-1.2-1.8-1.2-3.5-1.2-3.5V17.5c1-1,2.5-1.8,4.1-1.8c2.4,0,3.3,1.4,3.3,3.5V28
	C83.7,28,83.7,29.6,82.5,31.5"/>
<path class="st1" d="M103.1,18.3c3.9,0,6.1,1.9,6.1,5c0,2.8-1.7,4.8-6.2,4.8h-2.7v-9.8H103.1z M102.5,6.9c3.4,0,5,1.3,5,3.9
	c0,2.5-1.4,4-4.7,4c-0.6,0-1.8,0-2.5,0V6.9H102.5z M103.2,31.5c1.7,0,3.4-0.1,4.5-0.3c4.5-0.8,7.8-3.1,7.8-8c0-4-2.5-6-6.5-7.2
	c3.6-1.4,4.8-3.3,4.8-5.8c0-4.4-3.6-6.6-10-6.6l-10.7,0c0.8,1.1,1,2.8,1,4v20c0,1.3-0.2,2.7-1,3.9H103.2z"/>
</svg>
